<svg width="572" height="347" viewBox="0 0 572 347" fill="none" xmlns="http://www.w3.org/2000/svg">
<path d="M524.203 0H46.8977C20.9968 0 0 20.9968 0 46.8977V299.205C0 325.106 20.9968 346.103 46.8977 346.103H524.203C550.104 346.103 571.1 325.106 571.1 299.205V46.8977C571.1 20.9968 550.104 0 524.203 0Z" fill="#3B82F6"/>
<path d="M163.542 202.277L190.496 86.588H250.476V90.8581H238.109V239.549H250.476V243.819H181.956V239.549H194.322V99.1765H193.409L159.716 243.819H131.652L92.1095 98.4853H91.2209V239.549H103.562V243.819H73.0295V239.549H85.371V90.8581H73.0295V86.588H133.676L163.542 202.277ZM317.441 246.065C298.122 246.065 283.633 241.087 273.974 231.132C264.315 221.176 259.485 207.329 259.485 189.59C259.485 171.835 264.907 158.243 275.751 148.814C286.612 139.385 300.426 134.67 317.194 134.67C351.19 134.67 367.514 151.735 366.165 185.863H302.828V194.626C302.828 209.304 304.704 220.386 308.456 227.874C312.191 235.361 318.7 239.104 327.98 239.104C345.357 239.104 356.736 229.824 362.117 211.262L366.165 211.928C363.318 222.707 358.192 231.091 350.787 237.08C343.366 243.07 332.25 246.065 317.441 246.065ZM303.05 170.362V181.371H326.178V170.362C326.178 158.235 325.471 149.966 324.056 145.556C322.64 141.129 319.794 138.916 315.515 138.916C311.253 138.916 308.11 141.277 306.086 146C304.062 150.723 303.05 158.843 303.05 170.362ZM419.85 197.316C419.85 213.047 420.673 223.496 422.319 228.663C423.964 233.83 427 236.414 431.427 236.414C435.837 236.414 439.654 234.464 442.88 230.564C446.105 226.681 447.717 220.921 447.717 213.286V164.315C447.717 157.864 446.442 152.393 443.892 147.901C441.341 143.408 437.597 141.162 432.661 141.162C427.724 141.162 424.351 144.461 422.541 151.06C420.747 157.642 419.85 169.169 419.85 185.641V197.316ZM500.49 243.819H450.63L448.162 228.096C443.061 240.075 432.727 246.065 417.16 246.065C404.275 246.065 394.279 241.425 387.17 232.144C380.061 222.863 376.507 209.008 376.507 190.578C376.507 153.306 391.333 134.67 420.986 134.67C434.15 134.67 442.83 138.332 447.026 145.654V79.4053H433.327V75.3573H489.481V239.771H500.49V243.819Z" fill="white"/>
</svg>
