<svg width="1500" height="358" viewBox="0 0 1500 358" fill="none" xmlns="http://www.w3.org/2000/svg">
<path d="M1427.33 5.823H950.026C924.125 5.823 903.128 26.8198 903.128 52.7207V305.028C903.128 330.929 924.125 351.926 950.026 351.926H1427.33C1453.23 351.926 1474.23 330.929 1474.23 305.028V52.7207C1474.23 26.8198 1453.23 5.823 1427.33 5.823Z" fill="#3B82F6"/>
<path d="M1066.67 208.1L1093.62 92.411H1153.6V96.6811H1141.24V245.372H1153.6V249.642H1085.08V245.372H1097.45V104.999H1096.54L1062.84 249.642H1034.78L995.237 104.308H994.349V245.372H1006.69V249.642H976.157V245.372H988.499V96.6811H976.157V92.411H1036.8L1066.67 208.1ZM1220.57 251.888C1201.25 251.888 1186.76 246.91 1177.1 236.955C1167.44 226.999 1162.61 213.152 1162.61 195.413C1162.61 177.658 1168.03 164.066 1178.88 154.637C1189.74 145.208 1203.55 140.493 1220.32 140.493C1254.32 140.493 1270.64 157.558 1269.29 191.686H1205.96V200.449C1205.96 215.127 1207.83 226.209 1211.58 233.697C1215.32 241.184 1221.83 244.927 1231.11 244.927C1248.48 244.927 1259.86 235.647 1265.24 217.085L1269.29 217.751C1266.45 228.53 1261.32 236.914 1253.92 242.903C1246.49 248.893 1235.38 251.888 1220.57 251.888ZM1206.18 176.185V187.194H1229.31V176.185C1229.31 164.058 1228.6 155.789 1227.18 151.379C1225.77 146.952 1222.92 144.739 1218.64 144.739C1214.38 144.739 1211.24 147.1 1209.21 151.823C1207.19 156.546 1206.18 164.666 1206.18 176.185ZM1322.98 203.139C1322.98 218.87 1323.8 229.319 1325.45 234.486C1327.09 239.653 1330.13 242.237 1334.55 242.237C1338.96 242.237 1342.78 240.287 1346.01 236.387C1349.23 232.504 1350.85 226.744 1350.85 219.109V170.138C1350.85 163.687 1349.57 158.216 1347.02 153.724C1344.47 149.231 1340.73 146.985 1335.79 146.985C1330.85 146.985 1327.48 150.284 1325.67 156.883C1323.87 163.465 1322.98 174.992 1322.98 191.464V203.139ZM1403.62 249.642H1353.76L1351.29 233.919C1346.19 245.898 1335.85 251.888 1320.29 251.888C1307.4 251.888 1297.41 247.248 1290.3 237.967C1283.19 228.686 1279.63 214.831 1279.63 196.401C1279.63 159.129 1294.46 140.493 1324.11 140.493C1337.28 140.493 1345.96 144.155 1350.15 151.477V85.2283H1336.46V81.1803H1392.61V245.594H1403.62V249.642Z" fill="white"/>
<path d="M83.1757 96.5578L120.793 208.495L159.742 96.5578H142.267V92.3124H176.527V96.5578H166.012L112.055 251.246H93.2464L36.1793 96.5578H25.8618V92.3124H99.0715V96.5578H83.1757ZM213.008 126.992C205.11 126.992 199.482 124.984 196.125 120.969C192.768 116.938 191.09 111.935 191.09 105.962C191.09 99.9887 192.916 95.0604 196.569 91.1769C200.222 87.3099 205.776 85.3765 213.23 85.3765C220.701 85.3765 226.378 87.129 230.262 90.634C234.145 94.1389 236.087 99.1332 236.087 105.617C236.087 112.116 234.219 117.308 230.484 121.192C226.748 125.059 220.923 126.992 213.008 126.992ZM179.217 146.467V142.444H234.063V244.977H246.602V249H180.106V244.977H192.423V146.467H179.217ZM340.842 130.818L347.111 126.992C348 122.368 346.206 120.056 341.73 120.056C335.313 120.056 332.104 124.984 332.104 134.841C332.104 138.725 332.63 143.2 333.683 148.269C345.021 155.888 350.69 165.629 350.69 177.493C350.69 189.358 346.584 198.573 338.373 205.138C330.162 211.704 319.046 214.987 305.026 214.987C299.201 214.987 293.154 214.386 286.885 213.185C280.319 217.365 277.036 220.499 277.036 222.589C277.036 224.679 281.816 225.724 291.377 225.724H314.209C348.074 225.724 365.006 237.884 365.006 262.205C365.006 275.337 359.897 285.745 349.678 293.429C339.459 301.131 323.53 304.981 301.892 304.981C265.032 304.981 246.602 296.992 246.602 281.014C246.602 272.358 252.345 266.393 263.831 263.119L277.258 269.141C276.073 273.469 275.481 277.575 275.481 281.458C275.481 294.293 285.033 300.711 304.138 300.711C315.772 300.711 324.724 298.547 330.993 294.219C337.263 289.892 340.397 284.519 340.397 278.101C340.397 271.684 338.497 267.397 334.696 265.241C330.878 263.069 323.3 261.983 311.962 261.983H290.241C278.163 261.983 269.508 259.967 264.275 255.936C259.059 251.921 256.45 246.96 256.45 241.052C256.45 235.161 258.318 230.241 262.053 226.292C265.772 222.326 272.412 217.439 281.973 211.63C264.662 206.693 256.006 195.347 256.006 177.592C256.006 166.402 260.029 157.377 268.076 150.515C276.139 143.653 288.234 140.222 304.36 140.222C314.052 140.222 322.329 142.081 329.191 145.8C328.303 141.769 327.858 138.116 327.858 134.841C327.858 126.482 330.096 120.435 334.572 116.699C339.048 112.98 344.05 111.121 349.579 111.121C355.092 111.121 359.527 112.569 362.883 115.465C366.24 118.378 367.919 122.376 367.919 127.461C367.919 132.529 366.578 136.298 363.895 138.766C361.213 141.218 357.972 142.444 354.17 142.444C350.353 142.444 347.218 141.44 344.766 139.432C342.298 137.408 340.99 134.537 340.842 130.818ZM293.376 172.68V184.75C293.376 194.755 294.24 201.551 295.968 205.138C297.679 208.709 300.287 210.495 303.792 210.495C307.297 210.495 309.832 208.742 311.395 205.237C312.974 201.732 313.764 194.533 313.764 183.639V172.68C313.764 161.03 313.016 153.378 311.518 149.725C310.021 146.072 307.52 144.245 304.015 144.245C300.51 144.245 297.86 146.146 296.067 149.947C294.273 153.748 293.376 161.326 293.376 172.68Z" fill="black"/>
<path d="M400.846 126.992C392.931 126.992 387.295 124.984 383.938 120.969C380.581 116.938 378.903 111.935 378.903 105.962C378.903 99.9887 380.729 95.0604 384.382 91.1769C388.036 87.3099 393.598 85.3765 401.068 85.3765C408.522 85.3765 414.191 87.129 418.075 90.634C421.958 94.1389 423.9 99.1332 423.9 105.617C423.9 112.116 422.032 117.308 418.297 121.192C414.562 125.059 408.745 126.992 400.846 126.992ZM367.03 146.467V142.444H421.876V244.977H434.415V249H367.919V244.977H380.236V146.467H367.03ZM437.994 85.1295V81.1062H492.84V244.977H505.378V249H438.882V244.977H451.199V85.1295H437.994ZM563.359 196.401H569.85V179.172C569.85 164.987 569.069 155.468 567.506 150.614C565.926 145.759 562.898 143.332 558.422 143.332C555.74 143.332 553.321 144.048 551.166 145.48C548.993 146.895 547.907 148.828 547.907 151.28C547.907 153.748 548.36 156.25 549.265 158.784H554.843C556.045 161.927 556.645 165.695 556.645 170.089C556.645 174.499 554.777 178.308 551.042 181.517C547.307 184.726 542.609 186.33 536.948 186.33C524.113 186.33 517.695 180.134 517.695 167.744C517.695 149.396 533.287 140.222 564.47 140.222C582.241 140.222 594.517 143.242 601.297 149.281C608.093 155.32 611.491 166.402 611.491 182.529V227.97C611.491 235.721 613.655 239.596 617.982 239.596C623.051 239.596 626.037 231.911 626.942 216.542L630.299 216.764C629.69 229.895 627.222 238.929 622.894 243.866C618.567 248.786 611.482 251.246 601.642 251.246C583.722 251.246 573.421 245.725 570.739 234.684C568.797 240.345 565.893 244.524 562.026 247.223C558.143 249.905 552.465 251.246 544.995 251.246C522.912 251.246 511.87 242.22 511.87 224.169C511.87 213.572 516.083 206.29 524.508 202.325C532.949 198.375 545.9 196.401 563.359 196.401ZM554.399 223.922C554.399 231.689 554.81 236.691 555.633 238.929C556.456 241.167 558.019 242.286 560.323 242.286C562.643 242.286 564.815 240.386 566.839 236.585C568.847 232.783 569.85 227.518 569.85 220.787V199.98H568.271C559.023 199.98 554.399 206.767 554.399 220.343V223.922ZM632.99 146.467V142.444H686.922V163.054C689.308 156.175 692.969 150.647 697.906 146.467C702.826 142.304 710.288 140.222 720.293 140.222C743.413 140.222 754.973 152.679 754.973 177.592V244.977H767.512V249H704.175V244.977H713.333V172.211C713.333 163.26 712.74 157.484 711.556 154.884C710.354 152.267 708.19 150.959 705.064 150.959C700.292 150.959 696.071 154.094 692.402 160.363C688.749 166.633 686.922 174.243 686.922 183.195V244.977H696.548V249H632.99V244.977H645.282V146.467H632.99ZM781.631 216.986V146.467H769.314V142.444H781.631V113.564L823.246 103.272V142.444H852.347V146.467H823.246V221.923C823.246 228.933 823.962 234.083 825.393 237.374C826.809 240.649 829.754 242.286 834.23 242.286C838.706 242.286 842.622 240.048 845.979 235.572C849.336 231.097 851.541 224.975 852.594 217.208L856.395 217.677C855.194 227.962 851.911 236.132 846.547 242.187C841.166 248.227 832.28 251.246 819.889 251.246C807.515 251.246 798.045 248.786 791.479 243.866C784.913 238.929 781.631 229.969 781.631 216.986Z" fill="black"/>
</svg>
